<?xml version="1.0" encoding="UTF-8" standalone="no"?>
<!DOCTYPE svg PUBLIC "-//W3C//DTD SVG 1.1//EN"
 "http://www.w3.org/Graphics/SVG/1.1/DTD/svg11.dtd">
<!-- Generated by graphviz version 2.44.0 (20200408.0750)
 -->
<!-- Pages: 1 -->
<svg width="1764pt" height="1323pt"
 viewBox="0.00 0.00 1763.66 1323.00" xmlns="http://www.w3.org/2000/svg" xmlns:xlink="http://www.w3.org/1999/xlink">
<g id="graph0" class="graph" transform="scale(1 1) rotate(0) translate(4 1319)">
<polygon fill="white" stroke="transparent" points="-4,4 -4,-1319 1759.66,-1319 1759.66,4 -4,4"/>
<g id="clust1" class="cluster">
<title>cluster&#45;nid&#45;02</title>
<polygon fill="none" stroke="#cccccc" points="8,-291 8,-361 428.62,-361 428.62,-291 8,-291"/>
</g>
<g id="clust2" class="cluster">
<title>cluster&#45;nid&#45;03</title>
<polygon fill="none" stroke="#cccccc" points="8,-206 8,-276 428.62,-276 428.62,-206 8,-206"/>
</g>
<g id="clust5" class="cluster">
<title>cluster&#45;nid&#45;06</title>
<polygon fill="none" stroke="#cccccc" points="349.56,-61 349.56,-131 437.69,-131 437.69,-61 349.56,-61"/>
</g>
<g id="clust6" class="cluster">
<title>cluster&#45;nid&#45;07</title>
<polygon fill="none" stroke="#cccccc" points="1086.77,-1223 1086.77,-1293 1459.53,-1293 1459.53,-1223 1086.77,-1223"/>
</g>
<g id="clust7" class="cluster">
<title>cluster&#45;nid&#45;08</title>
<polygon fill="none" stroke="#cccccc" points="1380.47,-684 1380.47,-754 1747.66,-754 1747.66,-684 1380.47,-684"/>
</g>
<g id="clust8" class="cluster">
<title>cluster&#45;nid&#45;09</title>
<polygon fill="none" stroke="#cccccc" points="1380.47,-1010 1380.47,-1080 1747.66,-1080 1747.66,-1010 1380.47,-1010"/>
</g>
<g id="clust18" class="cluster">
<title>cluster&#45;nid&#45;12&#45;out</title>
<polygon fill="none" stroke="#cccccc" points="296.12,-1031 296.12,-1115 491.12,-1115 491.12,-1031 296.12,-1031"/>
</g>
<g id="clust20" class="cluster">
<title>cluster&#45;nid&#45;13&#45;out</title>
<polygon fill="none" stroke="#cccccc" points="305.12,-1131 305.12,-1215 482.12,-1215 482.12,-1131 305.12,-1131"/>
</g>
<g id="clust21" class="cluster">
<title>cluster&#45;nid&#45;14&#45;in</title>
<polygon fill="none" stroke="#cccccc" points="692.12,-468 692.12,-552 871.12,-552 871.12,-468 692.12,-468"/>
</g>
<g id="clust24" class="cluster">
<title>cluster&#45;nid&#45;16&#45;in</title>
<polygon fill="none" stroke="#cccccc" points="691.62,-284 691.62,-368 871.62,-368 871.62,-284 691.62,-284"/>
</g>
<g id="clust26" class="cluster">
<title>cluster&#45;nid&#45;17&#45;in</title>
<polygon fill="none" stroke="#cccccc" points="693.12,-100 693.12,-184 870.12,-184 870.12,-100 693.12,-100"/>
</g>
<g id="clust29" class="cluster">
<title>cluster&#45;nid&#45;18&#45;out</title>
<polygon fill="none" stroke="#cccccc" points="305.12,-1223 305.12,-1307 482.12,-1307 482.12,-1223 305.12,-1223"/>
</g>
<g id="clust31" class="cluster">
<title>cluster&#45;nid&#45;19&#45;out</title>
<polygon fill="none" stroke="#cccccc" points="305.12,-553 305.12,-637 482.12,-637 482.12,-553 305.12,-553"/>
</g>
<g id="clust33" class="cluster">
<title>cluster&#45;nid&#45;1a&#45;out</title>
<polygon fill="none" stroke="#cccccc" points="305.12,-924 305.12,-1008 482.12,-1008 482.12,-924 305.12,-924"/>
</g>
<g id="clust34" class="cluster">
<title>cluster&#45;nid&#45;1b&#45;in</title>
<polygon fill="none" stroke="#cccccc" points="693.12,-192 693.12,-276 1156.77,-276 1156.77,-192 693.12,-192"/>
</g>
<g id="clust35" class="cluster">
<title>cluster&#45;nid&#45;1b&#45;out</title>
<polygon fill="none" stroke="#cccccc" points="17.06,-802 17.06,-886 482.12,-886 482.12,-802 17.06,-802"/>
</g>
<g id="clust38" class="cluster">
<title>cluster&#45;nid&#45;1d&#45;out</title>
<polygon fill="none" stroke="#cccccc" points="302.12,-649 302.12,-733 485.12,-733 485.12,-649 302.12,-649"/>
</g>
<g id="clust39" class="cluster">
<title>cluster&#45;nid&#45;1e&#45;in</title>
<polygon fill="none" stroke="#cccccc" points="691.12,-8 691.12,-92 872.12,-92 872.12,-8 691.12,-8"/>
</g>
<g id="clust43" class="cluster">
<title>cluster&#45;nid&#45;21&#45;in</title>
<polygon fill="none" stroke="#cccccc" points="691.62,-376 691.62,-460 871.62,-460 871.62,-376 691.62,-376"/>
</g>
<g id="clust45" class="cluster">
<title>cluster&#45;nid&#45;22</title>
<polygon fill="none" stroke="#cccccc" points="691.73,-886 691.73,-1204 1171.41,-1204 1171.41,-886 691.73,-886"/>
</g>
<g id="clust46" class="cluster">
<title>cluster&#45;nid&#45;23</title>
<polygon fill="none" stroke="#cccccc" points="691.73,-560 691.73,-878 1171.41,-878 1171.41,-560 691.73,-560"/>
</g>
<g id="clust47" class="cluster">
<title>cluster&#45;nid&#45;24</title>
<polygon fill="none" stroke="#cccccc" points="720.75,-1212 720.75,-1304 842.5,-1304 842.5,-1212 720.75,-1212"/>
</g>
<!-- nid&#45;02 -->
<g id="node1" class="node">
<title>nid&#45;02</title>
<ellipse fill="none" stroke="blue" cx="52.06" cy="-326" rx="36.12" ry="26.74"/>
<text text-anchor="middle" x="52.06" y="-329.8" font-family="Times,serif" font-size="14.00">0x02</text>
<text text-anchor="middle" x="52.06" y="-314.8" font-family="Times,serif" font-size="14.00">Stereo</text>
</g>
<!-- nid&#45;02&#45;ampout -->
<g id="node2" class="node">
<title>nid&#45;02&#45;ampout</title>
<polygon fill="none" stroke="#0000ff" points="420.62,-326 380.12,-344 380.12,-308 420.62,-326"/>
</g>
<!-- nid&#45;02&#45;&gt;nid&#45;02&#45;ampout -->
<g id="edge1" class="edge">
<title>nid&#45;02&#45;&gt;nid&#45;02&#45;ampout</title>
<path fill="none" stroke="#0000ff" d="M88.44,-326C160.37,-326 321.39,-326 374.93,-326"/>
<polygon fill="#0000ff" stroke="#0000ff" points="375.06,-327.75 380.06,-326 375.06,-324.25 375.06,-327.75"/>
</g>
<!-- nid&#45;14&#45;in -->
<g id="node17" class="node">
<title>nid&#45;14&#45;in</title>
<polygon fill="none" stroke="green" points="863.12,-544 700.12,-544 700.12,-476 863.12,-476 863.12,-544"/>
<text text-anchor="middle" x="781.62" y="-528.8" font-family="Times,serif" font-size="14.00">0x14</text>
<text text-anchor="middle" x="781.62" y="-513.8" font-family="Times,serif" font-size="14.00">[Fixed] Speaker at Int N/A</text>
<text text-anchor="middle" x="781.62" y="-498.8" font-family="Times,serif" font-size="14.00">Stereo</text>
<text text-anchor="middle" x="781.62" y="-483.8" font-family="Times,serif" font-size="14.00">OUT EAPD Detect</text>
</g>
<!-- nid&#45;02&#45;ampout&#45;&gt;nid&#45;14&#45;in -->
<g id="edge9" class="edge">
<title>nid&#45;02&#45;ampout&#45;&gt;nid&#45;14&#45;in</title>
<path fill="none" stroke="#333333" d="M407.47,-332.12C452.33,-353.51 604.5,-426.05 700.11,-471.62"/>
<polygon fill="#333333" stroke="#333333" points="698.65,-474.8 709.18,-475.94 701.66,-468.48 698.65,-474.8"/>
</g>
<!-- nid&#45;16&#45;in -->
<g id="node18" class="node">
<title>nid&#45;16&#45;in</title>
<polygon fill="none" stroke="green" points="863.62,-360 699.62,-360 699.62,-292 863.62,-292 863.62,-360"/>
<text text-anchor="middle" x="781.62" y="-344.8" font-family="Times,serif" font-size="14.00">0x16</text>
<text text-anchor="middle" x="781.62" y="-329.8" font-family="Times,serif" font-size="14.00">[N/A] Line Out at Ext N/A</text>
<text text-anchor="middle" x="781.62" y="-314.8" font-family="Times,serif" font-size="14.00">Stereo</text>
<text text-anchor="middle" x="781.62" y="-299.8" font-family="Times,serif" font-size="14.00">OUT HP Detect</text>
</g>
<!-- nid&#45;02&#45;ampout&#45;&gt;nid&#45;16&#45;in -->
<g id="edge10" class="edge">
<title>nid&#45;02&#45;ampout&#45;&gt;nid&#45;16&#45;in</title>
<path fill="none" stroke="#333333" d="M420.85,-326C475.04,-326 601.6,-326 689.17,-326"/>
<polygon fill="#333333" stroke="#333333" points="689.38,-329.5 699.38,-326 689.38,-322.5 689.38,-329.5"/>
</g>
<!-- nid&#45;17&#45;in -->
<g id="node19" class="node">
<title>nid&#45;17&#45;in</title>
<polygon fill="none" stroke="green" points="862.12,-176 701.12,-176 701.12,-108 862.12,-108 862.12,-176"/>
<text text-anchor="middle" x="781.62" y="-160.8" font-family="Times,serif" font-size="14.00">0x17</text>
<text text-anchor="middle" x="781.62" y="-145.8" font-family="Times,serif" font-size="14.00">[N/A] Speaker at Ext Rear</text>
<text text-anchor="middle" x="781.62" y="-130.8" font-family="Times,serif" font-size="14.00">Stereo</text>
<text text-anchor="middle" x="781.62" y="-115.8" font-family="Times,serif" font-size="14.00">OUT HP Detect</text>
</g>
<!-- nid&#45;02&#45;ampout&#45;&gt;nid&#45;17&#45;in -->
<g id="edge12" class="edge">
<title>nid&#45;02&#45;ampout&#45;&gt;nid&#45;17&#45;in</title>
<path fill="none" stroke="#333333" d="M407.47,-319.88C452.33,-298.49 604.5,-225.95 700.11,-180.38"/>
<polygon fill="#333333" stroke="#333333" points="701.66,-183.52 709.18,-176.06 698.65,-177.2 701.66,-183.52"/>
</g>
<!-- nid&#45;1b&#45;in -->
<g id="node23" class="node">
<title>nid&#45;1b&#45;in</title>
<polygon fill="none" stroke="green" points="862.12,-268 701.12,-268 701.12,-200 862.12,-200 862.12,-268"/>
<text text-anchor="middle" x="781.62" y="-252.8" font-family="Times,serif" font-size="14.00">0x1b</text>
<text text-anchor="middle" x="781.62" y="-237.8" font-family="Times,serif" font-size="14.00">[N/A] Speaker at Ext Rear</text>
<text text-anchor="middle" x="781.62" y="-222.8" font-family="Times,serif" font-size="14.00">Stereo</text>
<text text-anchor="middle" x="781.62" y="-207.8" font-family="Times,serif" font-size="14.00">IN OUT EAPD Detect</text>
</g>
<!-- nid&#45;02&#45;ampout&#45;&gt;nid&#45;1b&#45;in -->
<g id="edge17" class="edge">
<title>nid&#45;02&#45;ampout&#45;&gt;nid&#45;1b&#45;in</title>
<path fill="none" stroke="#333333" d="M411.71,-321.93C459.64,-310.5 597.95,-277.54 690.92,-255.38"/>
<polygon fill="#333333" stroke="#333333" points="691.98,-258.72 700.9,-253 690.36,-251.92 691.98,-258.72"/>
</g>
<!-- nid&#45;21&#45;in -->
<g id="node29" class="node">
<title>nid&#45;21&#45;in</title>
<polygon fill="none" stroke="green" points="863.62,-452 699.62,-452 699.62,-384 863.62,-384 863.62,-452"/>
<text text-anchor="middle" x="781.62" y="-436.8" font-family="Times,serif" font-size="14.00">0x21</text>
<text text-anchor="middle" x="781.62" y="-421.8" font-family="Times,serif" font-size="14.00">[Jack] HP Out at Ext Right</text>
<text text-anchor="middle" x="781.62" y="-406.8" font-family="Times,serif" font-size="14.00">Stereo</text>
<text text-anchor="middle" x="781.62" y="-391.8" font-family="Times,serif" font-size="14.00">OUT HP EAPD Detect</text>
</g>
<!-- nid&#45;02&#45;ampout&#45;&gt;nid&#45;21&#45;in -->
<g id="edge20" class="edge">
<title>nid&#45;02&#45;ampout&#45;&gt;nid&#45;21&#45;in</title>
<path fill="none" stroke="gray" stroke-dasharray="5,2" d="M411.71,-330.07C459.36,-341.43 596.33,-374.08 689.28,-396.23"/>
<polygon fill="gray" stroke="gray" points="688.72,-399.69 699.26,-398.61 690.34,-392.88 688.72,-399.69"/>
</g>
<!-- nid&#45;03 -->
<g id="node3" class="node">
<title>nid&#45;03</title>
<ellipse fill="none" stroke="blue" cx="52.06" cy="-241" rx="36.12" ry="26.74"/>
<text text-anchor="middle" x="52.06" y="-244.8" font-family="Times,serif" font-size="14.00">0x03</text>
<text text-anchor="middle" x="52.06" y="-229.8" font-family="Times,serif" font-size="14.00">Stereo</text>
</g>
<!-- nid&#45;03&#45;ampout -->
<g id="node4" class="node">
<title>nid&#45;03&#45;ampout</title>
<polygon fill="none" stroke="#0000ff" points="420.62,-241 380.12,-259 380.12,-223 420.62,-241"/>
</g>
<!-- nid&#45;03&#45;&gt;nid&#45;03&#45;ampout -->
<g id="edge2" class="edge">
<title>nid&#45;03&#45;&gt;nid&#45;03&#45;ampout</title>
<path fill="none" stroke="#0000ff" d="M88.44,-241C160.37,-241 321.39,-241 374.93,-241"/>
<polygon fill="#0000ff" stroke="#0000ff" points="375.06,-242.75 380.06,-241 375.06,-239.25 375.06,-242.75"/>
</g>
<!-- nid&#45;03&#45;ampout&#45;&gt;nid&#45;16&#45;in -->
<g id="edge11" class="edge">
<title>nid&#45;03&#45;ampout&#45;&gt;nid&#45;16&#45;in</title>
<path fill="none" stroke="gray" stroke-dasharray="5,2" d="M412.21,-244.87C460.38,-255.48 597.01,-285.57 689.64,-305.96"/>
<polygon fill="gray" stroke="gray" points="689.06,-309.42 699.58,-308.15 690.57,-302.58 689.06,-309.42"/>
</g>
<!-- nid&#45;03&#45;ampout&#45;&gt;nid&#45;17&#45;in -->
<g id="edge13" class="edge">
<title>nid&#45;03&#45;ampout&#45;&gt;nid&#45;17&#45;in</title>
<path fill="none" stroke="gray" stroke-dasharray="5,2" d="M411.21,-236.75C458.74,-224.56 597.97,-188.85 691.27,-164.92"/>
<polygon fill="gray" stroke="gray" points="692.18,-168.3 701,-162.42 690.44,-161.52 692.18,-168.3"/>
</g>
<!-- nid&#45;03&#45;ampout&#45;&gt;nid&#45;1b&#45;in -->
<g id="edge18" class="edge">
<title>nid&#45;03&#45;ampout&#45;&gt;nid&#45;1b&#45;in</title>
<path fill="none" stroke="gray" stroke-dasharray="5,2" d="M419.65,-240.55C473.54,-239.57 602.81,-237.22 691.08,-235.62"/>
<polygon fill="gray" stroke="gray" points="691.16,-239.12 701.1,-235.44 691.04,-232.12 691.16,-239.12"/>
</g>
<!-- nid&#45;03&#45;ampout&#45;&gt;nid&#45;21&#45;in -->
<g id="edge21" class="edge">
<title>nid&#45;03&#45;ampout&#45;&gt;nid&#45;21&#45;in</title>
<path fill="none" stroke="#333333" d="M407.47,-246.89C451.89,-267.26 601.51,-335.86 697.26,-379.77"/>
<polygon fill="#333333" stroke="#333333" points="695.8,-382.95 706.35,-383.94 698.72,-376.59 695.8,-382.95"/>
</g>
<!-- nid&#45;06 -->
<g id="node5" class="node">
<title>nid&#45;06</title>
<ellipse fill="none" stroke="blue" cx="393.62" cy="-96" rx="36.12" ry="26.74"/>
<text text-anchor="middle" x="393.62" y="-99.8" font-family="Times,serif" font-size="14.00">0x06</text>
<text text-anchor="middle" x="393.62" y="-84.8" font-family="Times,serif" font-size="14.00">Stereo</text>
</g>
<!-- nid&#45;06&#45;&gt;nid&#45;17&#45;in -->
<g id="edge14" class="edge">
<title>nid&#45;06&#45;&gt;nid&#45;17&#45;in</title>
<path fill="none" stroke="gray" stroke-dasharray="5,2" d="M429.56,-100.16C488.05,-107.13 607.57,-121.38 690.81,-131.3"/>
<polygon fill="gray" stroke="gray" points="690.43,-134.78 700.78,-132.48 691.26,-127.83 690.43,-134.78"/>
</g>
<!-- nid&#45;1e&#45;in -->
<g id="node28" class="node">
<title>nid&#45;1e&#45;in</title>
<polygon fill="none" stroke="green" points="864.12,-84 699.12,-84 699.12,-16 864.12,-16 864.12,-84"/>
<text text-anchor="middle" x="781.62" y="-68.8" font-family="Times,serif" font-size="14.00">0x1e</text>
<text text-anchor="middle" x="781.62" y="-53.8" font-family="Times,serif" font-size="14.00">[N/A] Speaker at Ext Front</text>
<text text-anchor="middle" x="781.62" y="-38.8" font-family="Times,serif" font-size="14.00">Stereo</text>
<text text-anchor="middle" x="781.62" y="-23.8" font-family="Times,serif" font-size="14.00">OUT</text>
</g>
<!-- nid&#45;06&#45;&gt;nid&#45;1e&#45;in -->
<g id="edge19" class="edge">
<title>nid&#45;06&#45;&gt;nid&#45;1e&#45;in</title>
<path fill="none" stroke="#333333" d="M429.56,-91.84C487.61,-84.92 605.75,-70.84 688.9,-60.93"/>
<polygon fill="#333333" stroke="#333333" points="689.35,-64.4 698.86,-59.74 688.52,-57.45 689.35,-64.4"/>
</g>
<!-- nid&#45;07 -->
<g id="node6" class="node">
<title>nid&#45;07</title>
<ellipse fill="none" stroke="red" cx="1415.47" cy="-1258" rx="36.12" ry="26.74"/>
<text text-anchor="middle" x="1415.47" y="-1261.8" font-family="Times,serif" font-size="14.00">0x07</text>
<text text-anchor="middle" x="1415.47" y="-1246.8" font-family="Times,serif" font-size="14.00">Stereo</text>
</g>
<!-- nid&#45;07&#45;ampin -->
<g id="node7" class="node">
<title>nid&#45;07&#45;ampin</title>
<polygon fill="none" stroke="#c8c8c8" points="1148.77,-1258 1108.27,-1276 1108.27,-1240 1148.77,-1258"/>
</g>
<!-- nid&#45;07&#45;ampin&#45;&gt;nid&#45;07 -->
<g id="edge3" class="edge">
<title>nid&#45;07&#45;ampin&#45;&gt;nid&#45;07</title>
<path fill="none" stroke="#c8c8c8" d="M1148.91,-1258C1199.95,-1258 1313.17,-1258 1373.98,-1258"/>
<polygon fill="#c8c8c8" stroke="#c8c8c8" points="1374.34,-1259.75 1379.34,-1258 1374.34,-1256.25 1374.34,-1259.75"/>
</g>
<!-- nid&#45;24 -->
<g id="node8" class="node">
<title>nid&#45;24</title>
<polygon fill="none" stroke="black" points="834.37,-1296 750.46,-1296 728.88,-1220 812.79,-1220 834.37,-1296"/>
<text text-anchor="middle" x="781.62" y="-1261.8" font-family="Times,serif" font-size="14.00">0x24</text>
<text text-anchor="middle" x="781.62" y="-1246.8" font-family="Times,serif" font-size="14.00">Stereo</text>
</g>
<!-- nid&#45;24&#45;&gt;nid&#45;07&#45;ampin -->
<g id="edge4" class="edge">
<title>nid&#45;24&#45;&gt;nid&#45;07&#45;ampin</title>
<path fill="none" stroke="#333333" d="M823.75,-1258C895.54,-1258 1041.46,-1258 1097.83,-1258"/>
<polygon fill="#333333" stroke="#333333" points="1098.15,-1261.5 1108.15,-1258 1098.15,-1254.5 1098.15,-1261.5"/>
</g>
<!-- nid&#45;08 -->
<g id="node9" class="node">
<title>nid&#45;08</title>
<ellipse fill="none" stroke="red" cx="1703.59" cy="-719" rx="36.12" ry="26.74"/>
<text text-anchor="middle" x="1703.59" y="-722.8" font-family="Times,serif" font-size="14.00">0x08</text>
<text text-anchor="middle" x="1703.59" y="-707.8" font-family="Times,serif" font-size="14.00">Stereo</text>
</g>
<!-- nid&#45;08&#45;ampin -->
<g id="node10" class="node">
<title>nid&#45;08&#45;ampin</title>
<polygon fill="none" stroke="#3232f1" points="1442.47,-719 1401.97,-737 1401.97,-701 1442.47,-719"/>
</g>
<!-- nid&#45;08&#45;ampin&#45;&gt;nid&#45;08 -->
<g id="edge5" class="edge">
<title>nid&#45;08&#45;ampin&#45;&gt;nid&#45;08</title>
<path fill="none" stroke="#3232f1" d="M1442.62,-719C1492.7,-719 1602.47,-719 1662.1,-719"/>
<polygon fill="#3232f1" stroke="#3232f1" points="1662.36,-720.75 1667.36,-719 1662.36,-717.25 1662.36,-720.75"/>
</g>
<!-- nid&#45;23 -->
<g id="node11" class="node">
<title>nid&#45;23</title>
<polygon fill="none" stroke="black" points="1163.55,-719 1142.66,-750.05 1100.87,-750.05 1079.98,-719 1100.87,-687.95 1142.66,-687.95 1163.55,-719"/>
<text text-anchor="middle" x="1121.77" y="-722.8" font-family="Times,serif" font-size="14.00">0x23</text>
<text text-anchor="middle" x="1121.77" y="-707.8" font-family="Times,serif" font-size="14.00">Stereo</text>
</g>
<!-- nid&#45;23&#45;&gt;nid&#45;08&#45;ampin -->
<g id="edge6" class="edge">
<title>nid&#45;23&#45;&gt;nid&#45;08&#45;ampin</title>
<path fill="none" stroke="#333333" d="M1163.63,-719C1225.89,-719 1342.45,-719 1391.64,-719"/>
<polygon fill="#333333" stroke="#333333" points="1391.85,-722.5 1401.85,-719 1391.85,-715.5 1391.85,-722.5"/>
</g>
<!-- nid&#45;09 -->
<g id="node12" class="node">
<title>nid&#45;09</title>
<ellipse fill="none" stroke="red" cx="1703.59" cy="-1045" rx="36.12" ry="26.74"/>
<text text-anchor="middle" x="1703.59" y="-1048.8" font-family="Times,serif" font-size="14.00">0x09</text>
<text text-anchor="middle" x="1703.59" y="-1033.8" font-family="Times,serif" font-size="14.00">Stereo</text>
</g>
<!-- nid&#45;09&#45;ampin -->
<g id="node13" class="node">
<title>nid&#45;09&#45;ampin</title>
<polygon fill="none" stroke="#c8c8c8" points="1442.47,-1045 1401.97,-1063 1401.97,-1027 1442.47,-1045"/>
</g>
<!-- nid&#45;09&#45;ampin&#45;&gt;nid&#45;09 -->
<g id="edge7" class="edge">
<title>nid&#45;09&#45;ampin&#45;&gt;nid&#45;09</title>
<path fill="none" stroke="#c8c8c8" d="M1442.62,-1045C1492.7,-1045 1602.47,-1045 1662.1,-1045"/>
<polygon fill="#c8c8c8" stroke="#c8c8c8" points="1662.36,-1046.75 1667.36,-1045 1662.36,-1043.25 1662.36,-1046.75"/>
</g>
<!-- nid&#45;22 -->
<g id="node14" class="node">
<title>nid&#45;22</title>
<polygon fill="none" stroke="black" points="1163.55,-1045 1142.66,-1076.05 1100.87,-1076.05 1079.98,-1045 1100.87,-1013.95 1142.66,-1013.95 1163.55,-1045"/>
<text text-anchor="middle" x="1121.77" y="-1048.8" font-family="Times,serif" font-size="14.00">0x22</text>
<text text-anchor="middle" x="1121.77" y="-1033.8" font-family="Times,serif" font-size="14.00">Stereo</text>
</g>
<!-- nid&#45;22&#45;&gt;nid&#45;09&#45;ampin -->
<g id="edge8" class="edge">
<title>nid&#45;22&#45;&gt;nid&#45;09&#45;ampin</title>
<path fill="none" stroke="#333333" d="M1163.63,-1045C1225.89,-1045 1342.45,-1045 1391.64,-1045"/>
<polygon fill="#333333" stroke="#333333" points="1391.85,-1048.5 1401.85,-1045 1391.85,-1041.5 1391.85,-1048.5"/>
</g>
<!-- nid&#45;12&#45;out -->
<g id="node15" class="node">
<title>nid&#45;12&#45;out</title>
<polygon fill="none" stroke="green" points="483.12,-1107 304.12,-1107 304.12,-1039 483.12,-1039 483.12,-1107"/>
<text text-anchor="middle" x="393.62" y="-1091.8" font-family="Times,serif" font-size="14.00">0x12</text>
<text text-anchor="middle" x="393.62" y="-1076.8" font-family="Times,serif" font-size="14.00">[Fixed] Mic at Oth Mobile&#45;In</text>
<text text-anchor="middle" x="393.62" y="-1061.8" font-family="Times,serif" font-size="14.00">Stereo</text>
<text text-anchor="middle" x="393.62" y="-1046.8" font-family="Times,serif" font-size="14.00">IN</text>
</g>
<!-- nid&#45;12&#45;out&#45;&gt;nid&#45;24 -->
<g id="edge42" class="edge">
<title>nid&#45;12&#45;out&#45;&gt;nid&#45;24</title>
<path fill="none" stroke="#333333" d="M465.87,-1107.15C540.25,-1142.8 655.4,-1197.99 723.87,-1230.8"/>
<polygon fill="#333333" stroke="#333333" points="722.68,-1234.11 733.21,-1235.28 725.71,-1227.8 722.68,-1234.11"/>
</g>
<!-- nid&#45;23&#45;ampin&#45;18 -->
<g id="node39" class="node">
<title>nid&#45;23&#45;ampin&#45;18</title>
<polygon fill="none" stroke="#0000ff" points="863.41,-847 740.73,-870 740.73,-824 863.41,-847"/>
<text text-anchor="middle" x="781.62" y="-843.3" font-family="Times,serif" font-size="14.00">4 (0x12)</text>
</g>
<!-- nid&#45;12&#45;out&#45;&gt;nid&#45;23&#45;ampin&#45;18 -->
<g id="edge41" class="edge">
<title>nid&#45;12&#45;out&#45;&gt;nid&#45;23&#45;ampin&#45;18</title>
<path fill="none" stroke="#333333" d="M448.8,-1038.92C462.62,-1030.18 477.44,-1020.77 491.12,-1012 580.38,-954.79 596.82,-930.45 691.12,-882 703.78,-875.5 717.94,-869.44 731.2,-864.26"/>
<polygon fill="#333333" stroke="#333333" points="732.56,-867.48 740.65,-860.64 730.06,-860.94 732.56,-867.48"/>
</g>
<!-- nid&#45;13&#45;out -->
<g id="node16" class="node">
<title>nid&#45;13&#45;out</title>
<polygon fill="none" stroke="green" points="474.12,-1207 313.12,-1207 313.12,-1139 474.12,-1139 474.12,-1207"/>
<text text-anchor="middle" x="393.62" y="-1191.8" font-family="Times,serif" font-size="14.00">0x13</text>
<text text-anchor="middle" x="393.62" y="-1176.8" font-family="Times,serif" font-size="14.00">[N/A] Speaker at Ext Rear</text>
<text text-anchor="middle" x="393.62" y="-1161.8" font-family="Times,serif" font-size="14.00">Stereo</text>
<text text-anchor="middle" x="393.62" y="-1146.8" font-family="Times,serif" font-size="14.00">IN</text>
</g>
<!-- nid&#45;13&#45;out&#45;&gt;nid&#45;24 -->
<g id="edge43" class="edge">
<title>nid&#45;13&#45;out&#45;&gt;nid&#45;24</title>
<path fill="none" stroke="gray" stroke-dasharray="5,2" d="M474.14,-1190.51C549.66,-1207.14 661.13,-1231.69 726.77,-1246.14"/>
<polygon fill="gray" stroke="gray" points="726.38,-1249.64 736.9,-1248.37 727.89,-1242.8 726.38,-1249.64"/>
</g>
<!-- nid&#45;22&#45;ampin&#45;19 -->
<g id="node34" class="node">
<title>nid&#45;22&#45;ampin&#45;19</title>
<polygon fill="none" stroke="#c8c8c8" points="863.41,-1173 740.73,-1196 740.73,-1150 863.41,-1173"/>
<text text-anchor="middle" x="781.62" y="-1169.3" font-family="Times,serif" font-size="14.00">4 (0x13)</text>
</g>
<!-- nid&#45;13&#45;out&#45;&gt;nid&#45;22&#45;ampin&#45;19 -->
<g id="edge31" class="edge">
<title>nid&#45;13&#45;out&#45;&gt;nid&#45;22&#45;ampin&#45;19</title>
<path fill="none" stroke="#333333" d="M474.14,-1173C551.12,-1173 665.48,-1173 730.54,-1173"/>
<polygon fill="#333333" stroke="#333333" points="730.55,-1176.5 740.55,-1173 730.55,-1169.5 730.55,-1176.5"/>
</g>
<!-- nid&#45;18&#45;out -->
<g id="node20" class="node">
<title>nid&#45;18&#45;out</title>
<polygon fill="none" stroke="green" points="474.12,-1299 313.12,-1299 313.12,-1231 474.12,-1231 474.12,-1299"/>
<text text-anchor="middle" x="393.62" y="-1283.8" font-family="Times,serif" font-size="14.00">0x18</text>
<text text-anchor="middle" x="393.62" y="-1268.8" font-family="Times,serif" font-size="14.00">[N/A] Speaker at Ext Rear</text>
<text text-anchor="middle" x="393.62" y="-1253.8" font-family="Times,serif" font-size="14.00">Stereo</text>
<text text-anchor="middle" x="393.62" y="-1238.8" font-family="Times,serif" font-size="14.00">IN Detect</text>
</g>
<!-- nid&#45;18&#45;out&#45;&gt;nid&#45;24 -->
<g id="edge44" class="edge">
<title>nid&#45;18&#45;out&#45;&gt;nid&#45;24</title>
<path fill="none" stroke="gray" stroke-dasharray="5,2" d="M474.14,-1263.56C550.81,-1262.17 664.54,-1260.11 729.74,-1258.92"/>
<polygon fill="gray" stroke="gray" points="729.84,-1262.42 739.78,-1258.74 729.72,-1255.42 729.84,-1262.42"/>
</g>
<!-- nid&#45;19&#45;out -->
<g id="node21" class="node">
<title>nid&#45;19&#45;out</title>
<polygon fill="none" stroke="green" points="474.12,-629 313.12,-629 313.12,-561 474.12,-561 474.12,-629"/>
<text text-anchor="middle" x="393.62" y="-613.8" font-family="Times,serif" font-size="14.00">0x19</text>
<text text-anchor="middle" x="393.62" y="-598.8" font-family="Times,serif" font-size="14.00">[N/A] Speaker at Ext Rear</text>
<text text-anchor="middle" x="393.62" y="-583.8" font-family="Times,serif" font-size="14.00">Stereo</text>
<text text-anchor="middle" x="393.62" y="-568.8" font-family="Times,serif" font-size="14.00">IN Detect</text>
</g>
<!-- nid&#45;22&#45;ampin&#45;25 -->
<g id="node30" class="node">
<title>nid&#45;22&#45;ampin&#45;25</title>
<polygon fill="none" stroke="#c8c8c8" points="863.41,-917 740.73,-940 740.73,-894 863.41,-917"/>
<text text-anchor="middle" x="781.62" y="-913.3" font-family="Times,serif" font-size="14.00">0 (0x19)</text>
</g>
<!-- nid&#45;19&#45;out&#45;&gt;nid&#45;22&#45;ampin&#45;25 -->
<g id="edge27" class="edge">
<title>nid&#45;19&#45;out&#45;&gt;nid&#45;22&#45;ampin&#45;25</title>
<path fill="none" stroke="#333333" d="M467.95,-629.04C476.07,-633.95 483.97,-639.29 491.12,-645 598.82,-731.02 579.06,-801.77 691.12,-882 703.02,-890.52 717.28,-897.31 730.87,-902.55"/>
<polygon fill="#333333" stroke="#333333" points="730.02,-905.97 740.61,-906.1 732.41,-899.39 730.02,-905.97"/>
</g>
<!-- nid&#45;23&#45;ampin&#45;25 -->
<g id="node35" class="node">
<title>nid&#45;23&#45;ampin&#45;25</title>
<polygon fill="none" stroke="#c8c8c8" points="863.41,-591 740.73,-614 740.73,-568 863.41,-591"/>
<text text-anchor="middle" x="781.62" y="-587.3" font-family="Times,serif" font-size="14.00">0 (0x19)</text>
</g>
<!-- nid&#45;19&#45;out&#45;&gt;nid&#45;23&#45;ampin&#45;25 -->
<g id="edge37" class="edge">
<title>nid&#45;19&#45;out&#45;&gt;nid&#45;23&#45;ampin&#45;25</title>
<path fill="none" stroke="#333333" d="M474.14,-594.18C551.12,-593.38 665.48,-592.19 730.54,-591.52"/>
<polygon fill="#333333" stroke="#333333" points="730.58,-595.02 740.55,-591.42 730.51,-588.02 730.58,-595.02"/>
</g>
<!-- nid&#45;1a&#45;out -->
<g id="node22" class="node">
<title>nid&#45;1a&#45;out</title>
<polygon fill="none" stroke="green" points="474.12,-1000 313.12,-1000 313.12,-932 474.12,-932 474.12,-1000"/>
<text text-anchor="middle" x="393.62" y="-984.8" font-family="Times,serif" font-size="14.00">0x1a</text>
<text text-anchor="middle" x="393.62" y="-969.8" font-family="Times,serif" font-size="14.00">[N/A] Speaker at Ext Rear</text>
<text text-anchor="middle" x="393.62" y="-954.8" font-family="Times,serif" font-size="14.00">Stereo</text>
<text text-anchor="middle" x="393.62" y="-939.8" font-family="Times,serif" font-size="14.00">IN Detect</text>
</g>
<!-- nid&#45;22&#45;ampin&#45;26 -->
<g id="node31" class="node">
<title>nid&#45;22&#45;ampin&#45;26</title>
<polygon fill="none" stroke="#c8c8c8" points="862.31,-1109 741.28,-1132 741.28,-1086 862.31,-1109"/>
<text text-anchor="middle" x="781.62" y="-1105.3" font-family="Times,serif" font-size="14.00">1 (0x1a)</text>
</g>
<!-- nid&#45;1a&#45;out&#45;&gt;nid&#45;22&#45;ampin&#45;26 -->
<g id="edge28" class="edge">
<title>nid&#45;1a&#45;out&#45;&gt;nid&#45;22&#45;ampin&#45;26</title>
<path fill="none" stroke="#333333" d="M474.42,-996.24C534.03,-1018.74 617.57,-1050.08 691.12,-1077 704.09,-1081.74 718.14,-1086.81 731.18,-1091.47"/>
<polygon fill="#333333" stroke="#333333" points="730.33,-1094.88 740.93,-1094.95 732.69,-1088.29 730.33,-1094.88"/>
</g>
<!-- nid&#45;23&#45;ampin&#45;26 -->
<g id="node36" class="node">
<title>nid&#45;23&#45;ampin&#45;26</title>
<polygon fill="none" stroke="#c8c8c8" points="862.31,-783 741.28,-806 741.28,-760 862.31,-783"/>
<text text-anchor="middle" x="781.62" y="-779.3" font-family="Times,serif" font-size="14.00">1 (0x1a)</text>
</g>
<!-- nid&#45;1a&#45;out&#45;&gt;nid&#45;23&#45;ampin&#45;26 -->
<g id="edge38" class="edge">
<title>nid&#45;1a&#45;out&#45;&gt;nid&#45;23&#45;ampin&#45;26</title>
<path fill="none" stroke="#333333" d="M455.71,-931.99C514.9,-899.73 607.71,-850.98 691.12,-815 704.05,-809.43 718.3,-804.01 731.55,-799.27"/>
<polygon fill="#333333" stroke="#333333" points="732.72,-802.57 740.99,-795.95 730.4,-795.97 732.72,-802.57"/>
</g>
<!-- nid&#45;1b&#45;ampout -->
<g id="node24" class="node">
<title>nid&#45;1b&#45;ampout</title>
<polygon fill="none" stroke="#c8c8c8" points="1148.77,-234 1108.27,-252 1108.27,-216 1148.77,-234"/>
</g>
<!-- nid&#45;1b&#45;in&#45;&gt;nid&#45;1b&#45;ampout -->
<g id="edge15" class="edge">
<title>nid&#45;1b&#45;in&#45;&gt;nid&#45;1b&#45;ampout</title>
<path fill="none" stroke="#c8c8c8" d="M862.33,-234C942.07,-234 1059.03,-234 1103.1,-234"/>
<polygon fill="#c8c8c8" stroke="#c8c8c8" points="1103.1,-235.75 1108.1,-234 1103.1,-232.25 1103.1,-235.75"/>
</g>
<!-- nid&#45;1b&#45;out -->
<g id="node25" class="node">
<title>nid&#45;1b&#45;out</title>
<polygon fill="none" stroke="green" points="474.12,-878 313.12,-878 313.12,-810 474.12,-810 474.12,-878"/>
<text text-anchor="middle" x="393.62" y="-862.8" font-family="Times,serif" font-size="14.00">0x1b</text>
<text text-anchor="middle" x="393.62" y="-847.8" font-family="Times,serif" font-size="14.00">[N/A] Speaker at Ext Rear</text>
<text text-anchor="middle" x="393.62" y="-832.8" font-family="Times,serif" font-size="14.00">Stereo</text>
<text text-anchor="middle" x="393.62" y="-817.8" font-family="Times,serif" font-size="14.00">IN OUT EAPD Detect</text>
</g>
<!-- nid&#45;22&#45;ampin&#45;27 -->
<g id="node32" class="node">
<title>nid&#45;22&#45;ampin&#45;27</title>
<polygon fill="none" stroke="#c8c8c8" points="863.41,-1045 740.73,-1068 740.73,-1022 863.41,-1045"/>
<text text-anchor="middle" x="781.62" y="-1041.3" font-family="Times,serif" font-size="14.00">2 (0x1b)</text>
</g>
<!-- nid&#45;1b&#45;out&#45;&gt;nid&#45;22&#45;ampin&#45;27 -->
<g id="edge29" class="edge">
<title>nid&#45;1b&#45;out&#45;&gt;nid&#45;22&#45;ampin&#45;27</title>
<path fill="none" stroke="#333333" d="M447.77,-878.07C505.98,-914.48 602.83,-972.43 691.12,-1013 703.67,-1018.76 717.58,-1024.18 730.61,-1028.86"/>
<polygon fill="#333333" stroke="#333333" points="729.78,-1032.27 740.38,-1032.28 732.1,-1025.67 729.78,-1032.27"/>
</g>
<!-- nid&#45;23&#45;ampin&#45;27 -->
<g id="node37" class="node">
<title>nid&#45;23&#45;ampin&#45;27</title>
<polygon fill="none" stroke="#c8c8c8" points="863.41,-719 740.73,-742 740.73,-696 863.41,-719"/>
<text text-anchor="middle" x="781.62" y="-715.3" font-family="Times,serif" font-size="14.00">2 (0x1b)</text>
</g>
<!-- nid&#45;1b&#45;out&#45;&gt;nid&#45;23&#45;ampin&#45;27 -->
<g id="edge39" class="edge">
<title>nid&#45;1b&#45;out&#45;&gt;nid&#45;23&#45;ampin&#45;27</title>
<path fill="none" stroke="#333333" d="M474.14,-818.25C551.28,-793.27 665.95,-756.14 730.94,-735.09"/>
<polygon fill="#333333" stroke="#333333" points="732.11,-738.39 740.55,-731.98 729.96,-731.73 732.11,-738.39"/>
</g>
<!-- nid&#45;1b&#45;ampin -->
<g id="node26" class="node">
<title>nid&#45;1b&#45;ampin</title>
<polygon fill="none" stroke="#0000ff" points="79.06,-844 38.56,-862 38.56,-826 79.06,-844"/>
</g>
<!-- nid&#45;1b&#45;ampin&#45;&gt;nid&#45;1b&#45;out -->
<g id="edge16" class="edge">
<title>nid&#45;1b&#45;ampin&#45;&gt;nid&#45;1b&#45;out</title>
<path fill="none" stroke="#0000ff" d="M79.14,-844C127.37,-844 232.42,-844 307.62,-844"/>
<polygon fill="#0000ff" stroke="#0000ff" points="307.98,-845.75 312.98,-844 307.98,-842.25 307.98,-845.75"/>
</g>
<!-- nid&#45;1d&#45;out -->
<g id="node27" class="node">
<title>nid&#45;1d&#45;out</title>
<polygon fill="none" stroke="green" points="477.12,-725 310.12,-725 310.12,-657 477.12,-657 477.12,-725"/>
<text text-anchor="middle" x="393.62" y="-709.8" font-family="Times,serif" font-size="14.00">0x1d</text>
<text text-anchor="middle" x="393.62" y="-694.8" font-family="Times,serif" font-size="14.00">[N/A] SPDIF In at Ext N/A</text>
<text text-anchor="middle" x="393.62" y="-679.8" font-family="Times,serif" font-size="14.00">Mono</text>
<text text-anchor="middle" x="393.62" y="-664.8" font-family="Times,serif" font-size="14.00">IN</text>
</g>
<!-- nid&#45;22&#45;ampin&#45;29 -->
<g id="node33" class="node">
<title>nid&#45;22&#45;ampin&#45;29</title>
<polygon fill="none" stroke="#c8c8c8" points="863.41,-981 740.73,-1004 740.73,-958 863.41,-981"/>
<text text-anchor="middle" x="781.62" y="-977.3" font-family="Times,serif" font-size="14.00">3 (0x1d)</text>
</g>
<!-- nid&#45;1d&#45;out&#45;&gt;nid&#45;22&#45;ampin&#45;29 -->
<g id="edge30" class="edge">
<title>nid&#45;1d&#45;out&#45;&gt;nid&#45;22&#45;ampin&#45;29</title>
<path fill="none" stroke="#333333" d="M425.67,-725.25C476.43,-779.46 582.49,-885.39 691.12,-949 703.39,-956.18 717.52,-962.15 730.89,-966.91"/>
<polygon fill="#333333" stroke="#333333" points="729.85,-970.26 740.45,-970.16 732.11,-963.63 729.85,-970.26"/>
</g>
<!-- nid&#45;23&#45;ampin&#45;29 -->
<g id="node38" class="node">
<title>nid&#45;23&#45;ampin&#45;29</title>
<polygon fill="none" stroke="#c8c8c8" points="863.41,-655 740.73,-678 740.73,-632 863.41,-655"/>
<text text-anchor="middle" x="781.62" y="-651.3" font-family="Times,serif" font-size="14.00">3 (0x1d)</text>
</g>
<!-- nid&#45;1d&#45;out&#45;&gt;nid&#45;23&#45;ampin&#45;29 -->
<g id="edge40" class="edge">
<title>nid&#45;1d&#45;out&#45;&gt;nid&#45;23&#45;ampin&#45;29</title>
<path fill="none" stroke="#333333" d="M477.43,-683.28C554.23,-676.11 666.05,-665.69 730.24,-659.7"/>
<polygon fill="#333333" stroke="#333333" points="730.87,-663.16 740.5,-658.74 730.22,-656.19 730.87,-663.16"/>
</g>
<!-- nid&#45;22&#45;ampin&#45;25&#45;&gt;nid&#45;22 -->
<g id="edge22" class="edge">
<title>nid&#45;22&#45;ampin&#45;25&#45;&gt;nid&#45;22</title>
<path fill="none" stroke="#c8c8c8" d="M810.91,-926.91C828.55,-933.14 851.71,-941.41 872.12,-949 947.39,-976.98 1034.87,-1011.14 1083.42,-1030.25"/>
<polygon fill="#c8c8c8" stroke="#c8c8c8" points="1082.99,-1031.96 1088.28,-1032.16 1084.27,-1028.7 1082.99,-1031.96"/>
</g>
<!-- nid&#45;22&#45;ampin&#45;26&#45;&gt;nid&#45;22 -->
<g id="edge23" class="edge">
<title>nid&#45;22&#45;ampin&#45;26&#45;&gt;nid&#45;22</title>
<path fill="none" stroke="#c8c8c8" d="M822.74,-1101.41C887.45,-1089.16 1014.19,-1065.17 1079.57,-1052.8"/>
<polygon fill="#c8c8c8" stroke="#c8c8c8" points="1079.97,-1054.5 1084.56,-1051.85 1079.32,-1051.06 1079.97,-1054.5"/>
</g>
<!-- nid&#45;22&#45;ampin&#45;27&#45;&gt;nid&#45;22 -->
<g id="edge24" class="edge">
<title>nid&#45;22&#45;ampin&#45;27&#45;&gt;nid&#45;22</title>
<path fill="none" stroke="#c8c8c8" d="M863.62,-1045C929.68,-1045 1020.62,-1045 1074.78,-1045"/>
<polygon fill="#c8c8c8" stroke="#c8c8c8" points="1074.91,-1046.75 1079.91,-1045 1074.91,-1043.25 1074.91,-1046.75"/>
</g>
<!-- nid&#45;22&#45;ampin&#45;29&#45;&gt;nid&#45;22 -->
<g id="edge25" class="edge">
<title>nid&#45;22&#45;ampin&#45;29&#45;&gt;nid&#45;22</title>
<path fill="none" stroke="#c8c8c8" d="M823.08,-988.66C887.83,-1000.91 1014.09,-1024.81 1079.41,-1037.17"/>
<polygon fill="#c8c8c8" stroke="#c8c8c8" points="1079.15,-1038.9 1084.39,-1038.11 1079.8,-1035.47 1079.15,-1038.9"/>
</g>
<!-- nid&#45;22&#45;ampin&#45;19&#45;&gt;nid&#45;22 -->
<g id="edge26" class="edge">
<title>nid&#45;22&#45;ampin&#45;19&#45;&gt;nid&#45;22</title>
<path fill="none" stroke="#c8c8c8" d="M810.91,-1163.09C828.55,-1156.86 851.71,-1148.59 872.12,-1141 947.39,-1113.02 1034.87,-1078.86 1083.42,-1059.75"/>
<polygon fill="#c8c8c8" stroke="#c8c8c8" points="1084.27,-1061.3 1088.28,-1057.84 1082.99,-1058.04 1084.27,-1061.3"/>
</g>
<!-- nid&#45;23&#45;ampin&#45;25&#45;&gt;nid&#45;23 -->
<g id="edge32" class="edge">
<title>nid&#45;23&#45;ampin&#45;25&#45;&gt;nid&#45;23</title>
<path fill="none" stroke="#c8c8c8" d="M810.91,-600.91C828.55,-607.14 851.71,-615.41 872.12,-623 947.39,-650.98 1034.87,-685.14 1083.42,-704.25"/>
<polygon fill="#c8c8c8" stroke="#c8c8c8" points="1082.99,-705.96 1088.28,-706.16 1084.27,-702.7 1082.99,-705.96"/>
</g>
<!-- nid&#45;23&#45;ampin&#45;26&#45;&gt;nid&#45;23 -->
<g id="edge33" class="edge">
<title>nid&#45;23&#45;ampin&#45;26&#45;&gt;nid&#45;23</title>
<path fill="none" stroke="#c8c8c8" d="M822.74,-775.41C887.45,-763.16 1014.19,-739.17 1079.57,-726.8"/>
<polygon fill="#c8c8c8" stroke="#c8c8c8" points="1079.97,-728.5 1084.56,-725.85 1079.32,-725.06 1079.97,-728.5"/>
</g>
<!-- nid&#45;23&#45;ampin&#45;27&#45;&gt;nid&#45;23 -->
<g id="edge34" class="edge">
<title>nid&#45;23&#45;ampin&#45;27&#45;&gt;nid&#45;23</title>
<path fill="none" stroke="#c8c8c8" d="M863.62,-719C929.68,-719 1020.62,-719 1074.78,-719"/>
<polygon fill="#c8c8c8" stroke="#c8c8c8" points="1074.91,-720.75 1079.91,-719 1074.91,-717.25 1074.91,-720.75"/>
</g>
<!-- nid&#45;23&#45;ampin&#45;29&#45;&gt;nid&#45;23 -->
<g id="edge35" class="edge">
<title>nid&#45;23&#45;ampin&#45;29&#45;&gt;nid&#45;23</title>
<path fill="none" stroke="#c8c8c8" d="M823.08,-662.66C887.83,-674.91 1014.09,-698.81 1079.41,-711.17"/>
<polygon fill="#c8c8c8" stroke="#c8c8c8" points="1079.15,-712.9 1084.39,-712.11 1079.8,-709.47 1079.15,-712.9"/>
</g>
<!-- nid&#45;23&#45;ampin&#45;18&#45;&gt;nid&#45;23 -->
<g id="edge36" class="edge">
<title>nid&#45;23&#45;ampin&#45;18&#45;&gt;nid&#45;23</title>
<path fill="none" stroke="#0000ff" d="M810.91,-837.09C828.55,-830.86 851.71,-822.59 872.12,-815 947.39,-787.02 1034.87,-752.86 1083.42,-733.75"/>
<polygon fill="#0000ff" stroke="#0000ff" points="1084.27,-735.3 1088.28,-731.84 1082.99,-732.04 1084.27,-735.3"/>
</g>
</g>
</svg>
